<?xml version="1.0" encoding="UTF-8" standalone="no"?>
<!DOCTYPE svg PUBLIC "-//W3C//DTD SVG 1.1//EN"
 "http://www.w3.org/Graphics/SVG/1.1/DTD/svg11.dtd">
<!-- Generated by graphviz version 9.0.0 (20230911.1827)
 -->
<!-- Title: tree Pages: 1 -->
<svg width="5055pt" height="260pt"
 viewBox="0.00 0.00 5054.78 260.00" xmlns="http://www.w3.org/2000/svg" xmlns:xlink="http://www.w3.org/1999/xlink">
<g id="graph0" class="graph" transform="scale(1 1) rotate(0) translate(4 256)">
<title>tree</title>
<polygon fill="white" stroke="none" points="-4,4 -4,-256 5050.78,-256 5050.78,4 -4,4"/>
<!-- 0x0 -->
<g id="node1" class="node">
<title>0x0</title>
<ellipse fill="none" stroke="black" cx="2707.55" cy="-234" rx="37.02" ry="18"/>
<text text-anchor="middle" x="2707.55" y="-228.95" font-family="Times,serif" font-size="14.00">Пермь</text>
</g>
<!-- 0x1 -->
<g id="node2" class="node">
<title>0x1</title>
<ellipse fill="none" stroke="black" cx="1830.55" cy="-162" rx="123" ry="18"/>
<text text-anchor="middle" x="1830.55" y="-156.95" font-family="Times,serif" font-size="14.00">Города&#45;миллионеры России</text>
</g>
<!-- 0x0&#45;&gt;0x1 -->
<g id="edge1" class="edge">
<title>0x0&#45;&gt;0x1</title>
<path fill="none" stroke="black" d="M2670.98,-230.08C2548.47,-220.3 2148.94,-188.41 1948.07,-172.38"/>
<polygon fill="black" stroke="black" points="1948.36,-168.89 1938.11,-171.59 1947.8,-175.87 1948.36,-168.89"/>
</g>
<!-- 0xe -->
<g id="node15" class="node">
<title>0xe</title>
<ellipse fill="none" stroke="black" cx="2707.55" cy="-162" rx="159.85" ry="18"/>
<text text-anchor="middle" x="2707.55" y="-156.95" font-family="Times,serif" font-size="14.00">Здание бывшего Духовного училища</text>
</g>
<!-- 0x0&#45;&gt;0xe -->
<g id="edge2" class="edge">
<title>0x0&#45;&gt;0xe</title>
<path fill="none" stroke="black" d="M2707.55,-215.7C2707.55,-208.41 2707.55,-199.73 2707.55,-191.54"/>
<polygon fill="black" stroke="black" points="2711.05,-191.62 2707.55,-181.62 2704.05,-191.62 2711.05,-191.62"/>
</g>
<!-- 0xf -->
<g id="node16" class="node">
<title>0xf</title>
<ellipse fill="none" stroke="black" cx="3657.55" cy="-162" rx="68.75" ry="18"/>
<text text-anchor="middle" x="3657.55" y="-156.95" font-family="Times,serif" font-size="14.00">Орден Ленина</text>
</g>
<!-- 0x0&#45;&gt;0xf -->
<g id="edge3" class="edge">
<title>0x0&#45;&gt;0xf</title>
<path fill="none" stroke="black" d="M2744.21,-230.3C2884.21,-219.98 3386.99,-182.94 3580.7,-168.66"/>
<polygon fill="black" stroke="black" points="3580.68,-172.17 3590.39,-167.95 3580.16,-165.19 3580.68,-172.17"/>
</g>
<!-- 0x2 -->
<g id="node3" class="node">
<title>0x2</title>
<ellipse fill="none" stroke="black" cx="515.55" cy="-90" rx="52.89" ry="18"/>
<text text-anchor="middle" x="515.55" y="-84.95" font-family="Times,serif" font-size="14.00">Краснодар</text>
</g>
<!-- 0x1&#45;&gt;0x2 -->
<g id="edge4" class="edge">
<title>0x1&#45;&gt;0x2</title>
<path fill="none" stroke="black" d="M1716.44,-154.93C1448.64,-140.67 786.83,-105.44 579.03,-94.38"/>
<polygon fill="black" stroke="black" points="579.42,-90.9 569.25,-93.86 579.05,-97.89 579.42,-90.9"/>
</g>
<!-- 0x6 -->
<g id="node7" class="node">
<title>0x6</title>
<ellipse fill="none" stroke="black" cx="1435.55" cy="-90" rx="32.41" ry="18"/>
<text text-anchor="middle" x="1435.55" y="-84.95" font-family="Times,serif" font-size="14.00">Омск</text>
</g>
<!-- 0x1&#45;&gt;0x6 -->
<g id="edge5" class="edge">
<title>0x1&#45;&gt;0x6</title>
<path fill="none" stroke="black" d="M1754.39,-147.5C1671.91,-132.89 1543.33,-110.1 1477.49,-98.43"/>
<polygon fill="black" stroke="black" points="1478.28,-95.02 1467.83,-96.72 1477.06,-101.91 1478.28,-95.02"/>
</g>
<!-- 0xa -->
<g id="node11" class="node">
<title>0xa</title>
<ellipse fill="none" stroke="black" cx="2167.55" cy="-90" rx="174.7" ry="18"/>
<text text-anchor="middle" x="2167.55" y="-84.95" font-family="Times,serif" font-size="14.00">Дальневосточный экономический район</text>
</g>
<!-- 0x1&#45;&gt;0xa -->
<g id="edge6" class="edge">
<title>0x1&#45;&gt;0xa</title>
<path fill="none" stroke="black" d="M1899.56,-146.67C1952.09,-135.75 2024.73,-120.67 2081.13,-108.95"/>
<polygon fill="black" stroke="black" points="2081.62,-112.42 2090.7,-106.96 2080.2,-105.57 2081.62,-112.42"/>
</g>
<!-- 0x3 -->
<g id="node4" class="node">
<title>0x3</title>
<ellipse fill="none" stroke="black" cx="146.55" cy="-18" rx="146.55" ry="18"/>
<text text-anchor="middle" x="146.55" y="-12.95" font-family="Times,serif" font-size="14.00">Федеративное устройство России</text>
</g>
<!-- 0x2&#45;&gt;0x3 -->
<g id="edge7" class="edge">
<title>0x2&#45;&gt;0x3</title>
<path fill="none" stroke="black" d="M470.3,-80.42C412,-69.36 309.34,-49.88 235.23,-35.82"/>
<polygon fill="black" stroke="black" points="236.02,-32.41 225.54,-33.99 234.72,-39.29 236.02,-32.41"/>
</g>
<!-- 0x4 -->
<g id="node5" class="node">
<title>0x4</title>
<ellipse fill="none" stroke="black" cx="406.55" cy="-18" rx="95.37" ry="18"/>
<text text-anchor="middle" x="406.55" y="-12.95" font-family="Times,serif" font-size="14.00">Культура (телеканал)</text>
</g>
<!-- 0x2&#45;&gt;0x4 -->
<g id="edge8" class="edge">
<title>0x2&#45;&gt;0x4</title>
<path fill="none" stroke="black" d="M491.63,-73.64C477.2,-64.37 458.55,-52.39 442.38,-42.01"/>
<polygon fill="black" stroke="black" points="444.28,-39.07 433.97,-36.61 440.5,-44.96 444.28,-39.07"/>
</g>
<!-- 0x5 -->
<g id="node6" class="node">
<title>0x5</title>
<ellipse fill="none" stroke="black" cx="624.55" cy="-18" rx="105.09" ry="18"/>
<text text-anchor="middle" x="624.55" y="-12.95" font-family="Times,serif" font-size="14.00">Сочи (городской округ)</text>
</g>
<!-- 0x2&#45;&gt;0x5 -->
<g id="edge9" class="edge">
<title>0x2&#45;&gt;0x5</title>
<path fill="none" stroke="black" d="M539.47,-73.64C553.9,-64.37 572.55,-52.39 588.71,-42.01"/>
<polygon fill="black" stroke="black" points="590.6,-44.96 597.12,-36.61 586.82,-39.07 590.6,-44.96"/>
</g>
<!-- 0x7 -->
<g id="node8" class="node">
<title>0x7</title>
<ellipse fill="none" stroke="black" cx="939.55" cy="-18" rx="191.59" ry="18"/>
<text text-anchor="middle" x="939.55" y="-12.95" font-family="Times,serif" font-size="14.00">Ленинский административный округ (Омск)</text>
</g>
<!-- 0x6&#45;&gt;0x7 -->
<g id="edge10" class="edge">
<title>0x6&#45;&gt;0x7</title>
<path fill="none" stroke="black" d="M1404.14,-84.57C1335.26,-74.85 1167.97,-51.24 1054.11,-35.17"/>
<polygon fill="black" stroke="black" points="1054.81,-31.73 1044.42,-33.8 1053.83,-38.66 1054.81,-31.73"/>
</g>
<!-- 0x8 -->
<g id="node9" class="node">
<title>0x8</title>
<ellipse fill="none" stroke="black" cx="1279.55" cy="-18" rx="130.68" ry="18"/>
<text text-anchor="middle" x="1279.55" y="-12.95" font-family="Times,serif" font-size="14.00">Область Сибирских Киргизов</text>
</g>
<!-- 0x6&#45;&gt;0x8 -->
<g id="edge11" class="edge">
<title>0x6&#45;&gt;0x8</title>
<path fill="none" stroke="black" d="M1410.83,-77.91C1388.36,-67.82 1354.58,-52.67 1326.91,-40.25"/>
<polygon fill="black" stroke="black" points="1328.58,-37.17 1318.03,-36.27 1325.72,-43.55 1328.58,-37.17"/>
</g>
<!-- 0x9 -->
<g id="node10" class="node">
<title>0x9</title>
<ellipse fill="none" stroke="black" cx="1591.55" cy="-18" rx="163.44" ry="18"/>
<text text-anchor="middle" x="1591.55" y="-12.95" font-family="Times,serif" font-size="14.00">Детско&#45;юношеская спортивная школа</text>
</g>
<!-- 0x6&#45;&gt;0x9 -->
<g id="edge12" class="edge">
<title>0x6&#45;&gt;0x9</title>
<path fill="none" stroke="black" d="M1460.27,-77.91C1482.59,-67.89 1516.06,-52.87 1543.62,-40.51"/>
<polygon fill="black" stroke="black" points="1544.78,-43.82 1552.47,-36.53 1541.92,-37.43 1544.78,-43.82"/>
</g>
<!-- 0xb -->
<g id="node12" class="node">
<title>0xb</title>
<ellipse fill="none" stroke="black" cx="1954.55" cy="-18" rx="181.35" ry="18"/>
<text text-anchor="middle" x="1954.55" y="-12.95" font-family="Times,serif" font-size="14.00">Западно&#45;Сибирский экономический район</text>
</g>
<!-- 0xa&#45;&gt;0xb -->
<g id="edge13" class="edge">
<title>0xa&#45;&gt;0xb</title>
<path fill="none" stroke="black" d="M2116.8,-72.32C2086.51,-62.37 2047.84,-49.66 2015.85,-39.15"/>
<polygon fill="black" stroke="black" points="2017.31,-35.94 2006.71,-36.14 2015.12,-42.59 2017.31,-35.94"/>
</g>
<!-- 0xc -->
<g id="node13" class="node">
<title>0xc</title>
<ellipse fill="none" stroke="black" cx="2381.55" cy="-18" rx="227.93" ry="18"/>
<text text-anchor="middle" x="2381.55" y="-12.95" font-family="Times,serif" font-size="14.00">Перейти к шаблону «Экономические районы России»</text>
</g>
<!-- 0xa&#45;&gt;0xc -->
<g id="edge14" class="edge">
<title>0xa&#45;&gt;0xc</title>
<path fill="none" stroke="black" d="M2218.53,-72.32C2248.75,-62.44 2287.25,-49.84 2319.26,-39.38"/>
<polygon fill="black" stroke="black" points="2319.98,-42.82 2328.4,-36.38 2317.81,-36.17 2319.98,-42.82"/>
</g>
<!-- 0xd -->
<g id="node14" class="node">
<title>0xd</title>
<ellipse fill="none" stroke="black" cx="2763.55" cy="-18" rx="136.31" ry="18"/>
<text text-anchor="middle" x="2763.55" y="-12.95" font-family="Times,serif" font-size="14.00">Соединённые Штаты Америки</text>
</g>
<!-- 0xa&#45;&gt;0xd -->
<g id="edge15" class="edge">
<title>0xa&#45;&gt;0xd</title>
<path fill="none" stroke="black" d="M2279.65,-75.83C2386.53,-63.28 2546.52,-44.49 2652.91,-31.99"/>
<polygon fill="black" stroke="black" points="2653.29,-35.47 2662.81,-30.83 2652.47,-28.52 2653.29,-35.47"/>
</g>
<!-- 0x10 -->
<g id="node17" class="node">
<title>0x10</title>
<ellipse fill="none" stroke="black" cx="3431.55" cy="-90" rx="80.52" ry="18"/>
<text text-anchor="middle" x="3431.55" y="-84.95" font-family="Times,serif" font-size="14.00">Область (Россия)</text>
</g>
<!-- 0xf&#45;&gt;0x10 -->
<g id="edge16" class="edge">
<title>0xf&#45;&gt;0x10</title>
<path fill="none" stroke="black" d="M3614.24,-147.59C3578.47,-136.51 3527.41,-120.69 3488.36,-108.6"/>
<polygon fill="black" stroke="black" points="3489.46,-105.27 3478.87,-105.66 3487.39,-111.96 3489.46,-105.27"/>
</g>
<!-- 0x14 -->
<g id="node21" class="node">
<title>0x14</title>
<ellipse fill="none" stroke="black" cx="3833.55" cy="-90" rx="44.7" ry="18"/>
<text text-anchor="middle" x="3833.55" y="-84.95" font-family="Times,serif" font-size="14.00">1973 год</text>
</g>
<!-- 0xf&#45;&gt;0x14 -->
<g id="edge17" class="edge">
<title>0xf&#45;&gt;0x14</title>
<path fill="none" stroke="black" d="M3694.02,-146.5C3722.53,-135.15 3762.19,-119.38 3791.95,-107.55"/>
<polygon fill="black" stroke="black" points="3793.02,-110.89 3801.01,-103.94 3790.43,-104.38 3793.02,-110.89"/>
</g>
<!-- 0x18 -->
<g id="node25" class="node">
<title>0x18</title>
<ellipse fill="none" stroke="black" cx="4395.55" cy="-90" rx="140.41" ry="18"/>
<text text-anchor="middle" x="4395.55" y="-84.95" font-family="Times,serif" font-size="14.00">Герой Социалистического Труда</text>
</g>
<!-- 0xf&#45;&gt;0x18 -->
<g id="edge18" class="edge">
<title>0xf&#45;&gt;0x18</title>
<path fill="none" stroke="black" d="M3721.43,-154.94C3844.36,-143.28 4115.66,-117.55 4274.06,-102.52"/>
<polygon fill="black" stroke="black" points="4274.13,-106.03 4283.76,-101.6 4273.47,-99.06 4274.13,-106.03"/>
</g>
<!-- 0x11 -->
<g id="node18" class="node">
<title>0x11</title>
<ellipse fill="none" stroke="black" cx="3021.55" cy="-18" rx="103.56" ry="18"/>
<text text-anchor="middle" x="3021.55" y="-12.95" font-family="Times,serif" font-size="14.00">Архангельская область</text>
</g>
<!-- 0x10&#45;&gt;0x11 -->
<g id="edge19" class="edge">
<title>0x10&#45;&gt;0x11</title>
<path fill="none" stroke="black" d="M3368.83,-78.29C3298.17,-66.23 3183,-46.56 3104.83,-33.22"/>
<polygon fill="black" stroke="black" points="3105.52,-29.79 3095.07,-31.55 3104.34,-36.69 3105.52,-29.79"/>
</g>
<!-- 0x12 -->
<g id="node19" class="node">
<title>0x12</title>
<ellipse fill="none" stroke="black" cx="3318.55" cy="-18" rx="175.72" ry="18"/>
<text text-anchor="middle" x="3318.55" y="-12.95" font-family="Times,serif" font-size="14.00">Амурская область (Российская империя)</text>
</g>
<!-- 0x10&#45;&gt;0x12 -->
<g id="edge20" class="edge">
<title>0x10&#45;&gt;0x12</title>
<path fill="none" stroke="black" d="M3405.05,-72.59C3390.36,-63.49 3371.85,-52.02 3355.73,-42.03"/>
<polygon fill="black" stroke="black" points="3357.69,-39.13 3347.34,-36.84 3354,-45.08 3357.69,-39.13"/>
</g>
<!-- 0x13 -->
<g id="node20" class="node">
<title>0x13</title>
<ellipse fill="none" stroke="black" cx="3607.55" cy="-18" rx="94.86" ry="18"/>
<text text-anchor="middle" x="3607.55" y="-12.95" font-family="Times,serif" font-size="14.00">Харьковская область</text>
</g>
<!-- 0x10&#45;&gt;0x13 -->
<g id="edge21" class="edge">
<title>0x10&#45;&gt;0x13</title>
<path fill="none" stroke="black" d="M3469.74,-73.81C3495.47,-63.58 3529.66,-49.98 3557.56,-38.88"/>
<polygon fill="black" stroke="black" points="3558.5,-42.27 3566.5,-35.33 3555.92,-35.77 3558.5,-42.27"/>
</g>
<!-- 0x15 -->
<g id="node22" class="node">
<title>0x15</title>
<ellipse fill="none" stroke="black" cx="3770.55" cy="-18" rx="50.33" ry="18"/>
<text text-anchor="middle" x="3770.55" y="-12.95" font-family="Times,serif" font-size="14.00">26 января</text>
</g>
<!-- 0x14&#45;&gt;0x15 -->
<g id="edge22" class="edge">
<title>0x14&#45;&gt;0x15</title>
<path fill="none" stroke="black" d="M3818.94,-72.76C3811.25,-64.23 3801.67,-53.58 3793.06,-44.02"/>
<polygon fill="black" stroke="black" points="3795.82,-41.85 3786.53,-36.76 3790.62,-46.53 3795.82,-41.85"/>
</g>
<!-- 0x16 -->
<g id="node23" class="node">
<title>0x16</title>
<ellipse fill="none" stroke="black" cx="3897.55" cy="-18" rx="59.03" ry="18"/>
<text text-anchor="middle" x="3897.55" y="-12.95" font-family="Times,serif" font-size="14.00">Ле Дык Тхо</text>
</g>
<!-- 0x14&#45;&gt;0x16 -->
<g id="edge23" class="edge">
<title>0x14&#45;&gt;0x16</title>
<path fill="none" stroke="black" d="M3848.39,-72.76C3856.19,-64.23 3865.93,-53.58 3874.67,-44.02"/>
<polygon fill="black" stroke="black" points="3877.15,-46.49 3881.32,-36.75 3871.99,-41.77 3877.15,-46.49"/>
</g>
<!-- 0x17 -->
<g id="node24" class="node">
<title>0x17</title>
<ellipse fill="none" stroke="black" cx="4064.55" cy="-18" rx="89.74" ry="18"/>
<text text-anchor="middle" x="4064.55" y="-12.95" font-family="Times,serif" font-size="14.00">Анжелика Бриджес</text>
</g>
<!-- 0x14&#45;&gt;0x17 -->
<g id="edge24" class="edge">
<title>0x14&#45;&gt;0x17</title>
<path fill="none" stroke="black" d="M3868.63,-78.37C3904.97,-67.36 3962.4,-49.95 4005.7,-36.83"/>
<polygon fill="black" stroke="black" points="4006.67,-40.2 4015.22,-33.95 4004.64,-33.5 4006.67,-40.2"/>
</g>
<!-- 0x19 -->
<g id="node26" class="node">
<title>0x19</title>
<ellipse fill="none" stroke="black" cx="4265.55" cy="-18" rx="92.81" ry="18"/>
<text text-anchor="middle" x="4265.55" y="-12.95" font-family="Times,serif" font-size="14.00">Герой Труда (КНДР)</text>
</g>
<!-- 0x18&#45;&gt;0x19 -->
<g id="edge25" class="edge">
<title>0x18&#45;&gt;0x19</title>
<path fill="none" stroke="black" d="M4364.08,-72.05C4346.58,-62.63 4324.61,-50.81 4305.87,-40.71"/>
<polygon fill="black" stroke="black" points="4307.63,-37.68 4297.16,-36.02 4304.31,-43.85 4307.63,-37.68"/>
</g>
<!-- 0x1a -->
<g id="node27" class="node">
<title>0x1a</title>
<ellipse fill="none" stroke="black" cx="4526.55" cy="-18" rx="150.13" ry="18"/>
<text text-anchor="middle" x="4526.55" y="-12.95" font-family="Times,serif" font-size="14.00">Крупчатников, Михаил Яковлевич</text>
</g>
<!-- 0x18&#45;&gt;0x1a -->
<g id="edge26" class="edge">
<title>0x18&#45;&gt;0x1a</title>
<path fill="none" stroke="black" d="M4427.26,-72.05C4444.51,-62.84 4466.07,-51.32 4484.68,-41.37"/>
<polygon fill="black" stroke="black" points="4486.17,-44.54 4493.34,-36.74 4482.87,-38.37 4486.17,-44.54"/>
</g>
<!-- 0x1b -->
<g id="node28" class="node">
<title>0x1b</title>
<ellipse fill="none" stroke="black" cx="4870.55" cy="-18" rx="176.23" ry="18"/>
<text text-anchor="middle" x="4870.55" y="-12.95" font-family="Times,serif" font-size="14.00">Герои Социалистического Труда Бурятии</text>
</g>
<!-- 0x18&#45;&gt;0x1b -->
<g id="edge27" class="edge">
<title>0x18&#45;&gt;0x1b</title>
<path fill="none" stroke="black" d="M4485.17,-75.79C4563.7,-64.22 4678.04,-47.37 4761.78,-35.03"/>
<polygon fill="black" stroke="black" points="4762.25,-38.5 4771.63,-33.58 4761.23,-31.57 4762.25,-38.5"/>
</g>
</g>
</svg>
