<?xml version="1.0" encoding="UTF-8" standalone="no"?>
<!DOCTYPE svg PUBLIC "-//W3C//DTD SVG 1.1//EN"
 "http://www.w3.org/Graphics/SVG/1.1/DTD/svg11.dtd">
<!-- Generated by graphviz version 9.0.0 (20230911.1827)
 -->
<!-- Title: tree Pages: 1 -->
<svg width="4566pt" height="260pt"
 viewBox="0.00 0.00 4566.44 260.00" xmlns="http://www.w3.org/2000/svg" xmlns:xlink="http://www.w3.org/1999/xlink">
<g id="graph0" class="graph" transform="scale(1 1) rotate(0) translate(4 256)">
<title>tree</title>
<polygon fill="white" stroke="none" points="-4,4 -4,-256 4562.44,-256 4562.44,4 -4,4"/>
<!-- Чёрная металлургия -->
<g id="node1" class="node">
<title>Чёрная металлургия</title>
<ellipse fill="none" stroke="black" cx="2332.86" cy="-234" rx="92.81" ry="18"/>
<text text-anchor="middle" x="2332.86" y="-228.95" font-family="Times,serif" font-size="14.00">Чёрная металлургия</text>
</g>
<!-- Металлы -->
<g id="node2" class="node">
<title>Металлы</title>
<ellipse fill="none" stroke="black" cx="852.86" cy="-162" rx="47.26" ry="18"/>
<text text-anchor="middle" x="852.86" y="-156.95" font-family="Times,serif" font-size="14.00">Металлы</text>
</g>
<!-- Чёрная металлургия&#45;&gt;Металлы -->
<g id="edge1" class="edge">
<title>Чёрная металлургия&#45;&gt;Металлы</title>
<path fill="none" stroke="black" d="M2243.62,-228.78C1968.57,-215.77 1138.8,-176.52 911.17,-165.76"/>
<polygon fill="black" stroke="black" points="911.52,-162.27 901.36,-165.29 911.18,-169.26 911.52,-162.27"/>
</g>
<!-- Грум&#45;Гржимайло, Владимир Ефимович -->
<g id="node15" class="node">
<title>Грум&#45;Гржимайло, Владимир Ефимович</title>
<ellipse fill="none" stroke="black" cx="2332.86" cy="-162" rx="170.6" ry="18"/>
<text text-anchor="middle" x="2332.86" y="-156.95" font-family="Times,serif" font-size="14.00">Грум&#45;Гржимайло, Владимир Ефимович</text>
</g>
<!-- Чёрная металлургия&#45;&gt;Грум&#45;Гржимайло, Владимир Ефимович -->
<g id="edge2" class="edge">
<title>Чёрная металлургия&#45;&gt;Грум&#45;Гржимайло, Владимир Ефимович</title>
<path fill="none" stroke="black" d="M2332.86,-215.7C2332.86,-208.41 2332.86,-199.73 2332.86,-191.54"/>
<polygon fill="black" stroke="black" points="2336.36,-191.62 2332.86,-181.62 2329.36,-191.62 2336.36,-191.62"/>
</g>
<!-- Слябинг -->
<g id="node27" class="node">
<title>Слябинг</title>
<ellipse fill="none" stroke="black" cx="3686.86" cy="-162" rx="45.21" ry="18"/>
<text text-anchor="middle" x="3686.86" y="-156.95" font-family="Times,serif" font-size="14.00">Слябинг</text>
</g>
<!-- Чёрная металлургия&#45;&gt;Слябинг -->
<g id="edge3" class="edge">
<title>Чёрная металлургия&#45;&gt;Слябинг</title>
<path fill="none" stroke="black" d="M2421.7,-228.41C2679.09,-215.1 3420.3,-176.78 3630.62,-165.91"/>
<polygon fill="black" stroke="black" points="3630.65,-169.41 3640.46,-165.4 3630.29,-162.42 3630.65,-169.41"/>
</g>
<!-- Нервная система -->
<g id="node3" class="node">
<title>Нервная система</title>
<ellipse fill="none" stroke="black" cx="259.86" cy="-90" rx="78.99" ry="18"/>
<text text-anchor="middle" x="259.86" y="-84.95" font-family="Times,serif" font-size="14.00">Нервная система</text>
</g>
<!-- Металлы&#45;&gt;Нервная система -->
<g id="edge4" class="edge">
<title>Металлы&#45;&gt;Нервная система</title>
<path fill="none" stroke="black" d="M808.29,-155.74C708.54,-143.96 466.18,-115.35 339.69,-100.42"/>
<polygon fill="black" stroke="black" points="340.4,-96.98 330.06,-99.29 339.58,-103.93 340.4,-96.98"/>
</g>
<!-- Олово -->
<g id="node7" class="node">
<title>Олово</title>
<ellipse fill="none" stroke="black" cx="665.86" cy="-90" rx="36" ry="18"/>
<text text-anchor="middle" x="665.86" y="-84.95" font-family="Times,serif" font-size="14.00">Олово</text>
</g>
<!-- Металлы&#45;&gt;Олово -->
<g id="edge5" class="edge">
<title>Металлы&#45;&gt;Олово</title>
<path fill="none" stroke="black" d="M819.86,-148.65C787.6,-136.57 738.49,-118.19 704.44,-105.44"/>
<polygon fill="black" stroke="black" points="705.97,-102.28 695.38,-102.05 703.51,-108.83 705.97,-102.28"/>
</g>
<!-- Слово -->
<g id="node11" class="node">
<title>Слово</title>
<ellipse fill="none" stroke="black" cx="1039.86" cy="-90" rx="35.49" ry="18"/>
<text text-anchor="middle" x="1039.86" y="-84.95" font-family="Times,serif" font-size="14.00">Слово</text>
</g>
<!-- Металлы&#45;&gt;Слово -->
<g id="edge6" class="edge">
<title>Металлы&#45;&gt;Слово</title>
<path fill="none" stroke="black" d="M885.86,-148.65C918.13,-136.57 967.23,-118.19 1001.28,-105.44"/>
<polygon fill="black" stroke="black" points="1002.21,-108.83 1010.35,-102.05 999.76,-102.28 1002.21,-108.83"/>
</g>
<!-- Спинной мозг -->
<g id="node4" class="node">
<title>Спинной мозг</title>
<ellipse fill="none" stroke="black" cx="334.86" cy="-18" rx="68.24" ry="18"/>
<text text-anchor="middle" x="334.86" y="-12.95" font-family="Times,serif" font-size="14.00">Спинной мозг</text>
</g>
<!-- Нервная система&#45;&gt;Спинной мозг -->
<g id="edge7" class="edge">
<title>Нервная система&#45;&gt;Спинной мозг</title>
<path fill="none" stroke="black" d="M278.02,-72.05C287.23,-63.46 298.59,-52.86 308.72,-43.4"/>
<polygon fill="black" stroke="black" points="310.85,-46.2 315.77,-36.82 306.07,-41.09 310.85,-46.2"/>
</g>
<!-- Мозжечок -->
<g id="node5" class="node">
<title>Мозжечок</title>
<ellipse fill="none" stroke="black" cx="51.86" cy="-18" rx="51.86" ry="18"/>
<text text-anchor="middle" x="51.86" y="-12.95" font-family="Times,serif" font-size="14.00">Мозжечок</text>
</g>
<!-- Нервная система&#45;&gt;Мозжечок -->
<g id="edge8" class="edge">
<title>Нервная система&#45;&gt;Мозжечок</title>
<path fill="none" stroke="black" d="M216.77,-74.5C182.37,-62.92 134.24,-46.72 98.85,-34.81"/>
<polygon fill="black" stroke="black" points="100.34,-31.62 89.75,-31.75 98.11,-38.26 100.34,-31.62"/>
</g>
<!-- Ножки мозга -->
<g id="node6" class="node">
<title>Ножки мозга</title>
<ellipse fill="none" stroke="black" cx="184.86" cy="-18" rx="63.63" ry="18"/>
<text text-anchor="middle" x="184.86" y="-12.95" font-family="Times,serif" font-size="14.00">Ножки мозга</text>
</g>
<!-- Нервная система&#45;&gt;Ножки мозга -->
<g id="edge9" class="edge">
<title>Нервная система&#45;&gt;Ножки мозга</title>
<path fill="none" stroke="black" d="M241.71,-72.05C232.43,-63.39 220.97,-52.7 210.78,-43.19"/>
<polygon fill="black" stroke="black" points="213.4,-40.84 203.7,-36.58 208.62,-45.96 213.4,-40.84"/>
</g>
<!-- Подгруппа углерода -->
<g id="node8" class="node">
<title>Подгруппа углерода</title>
<ellipse fill="none" stroke="black" cx="752.86" cy="-18" rx="91.78" ry="18"/>
<text text-anchor="middle" x="752.86" y="-12.95" font-family="Times,serif" font-size="14.00">Подгруппа углерода</text>
</g>
<!-- Олово&#45;&gt;Подгруппа углерода -->
<g id="edge10" class="edge">
<title>Олово&#45;&gt;Подгруппа углерода</title>
<path fill="none" stroke="black" d="M684.31,-74.15C695.66,-65.02 710.46,-53.12 723.4,-42.71"/>
<polygon fill="black" stroke="black" points="725.22,-45.73 730.82,-36.74 720.83,-40.28 725.22,-45.73"/>
</g>
<!-- Эрбий -->
<g id="node9" class="node">
<title>Эрбий</title>
<ellipse fill="none" stroke="black" cx="457.86" cy="-18" rx="36.51" ry="18"/>
<text text-anchor="middle" x="457.86" y="-12.95" font-family="Times,serif" font-size="14.00">Эрбий</text>
</g>
<!-- Олово&#45;&gt;Эрбий -->
<g id="edge11" class="edge">
<title>Олово&#45;&gt;Эрбий</title>
<path fill="none" stroke="black" d="M635.89,-79.57C603.29,-69.22 549.69,-51.96 503.86,-36 501.51,-35.18 499.1,-34.33 496.66,-33.46"/>
<polygon fill="black" stroke="black" points="498.04,-30.23 487.44,-30.11 495.65,-36.81 498.04,-30.23"/>
</g>
<!-- Доллар США -->
<g id="node10" class="node">
<title>Доллар США</title>
<ellipse fill="none" stroke="black" cx="577.86" cy="-18" rx="65.17" ry="18"/>
<text text-anchor="middle" x="577.86" y="-12.95" font-family="Times,serif" font-size="14.00">Доллар США</text>
</g>
<!-- Олово&#45;&gt;Доллар США -->
<g id="edge12" class="edge">
<title>Олово&#45;&gt;Доллар США</title>
<path fill="none" stroke="black" d="M647.2,-74.15C635.64,-64.96 620.54,-52.95 607.39,-42.48"/>
<polygon fill="black" stroke="black" points="609.84,-39.97 599.84,-36.48 605.49,-45.45 609.84,-39.97"/>
</g>
<!-- Понятие -->
<g id="node12" class="node">
<title>Понятие</title>
<ellipse fill="none" stroke="black" cx="1261.86" cy="-18" rx="45.21" ry="18"/>
<text text-anchor="middle" x="1261.86" y="-12.95" font-family="Times,serif" font-size="14.00">Понятие</text>
</g>
<!-- Слово&#45;&gt;Понятие -->
<g id="edge13" class="edge">
<title>Слово&#45;&gt;Понятие</title>
<path fill="none" stroke="black" d="M1069.34,-79.7C1106.88,-67.87 1172.15,-47.29 1216.17,-33.41"/>
<polygon fill="black" stroke="black" points="1217.22,-36.75 1225.7,-30.4 1215.11,-30.07 1217.22,-36.75"/>
</g>
<!-- Флективные языки -->
<g id="node13" class="node">
<title>Флективные языки</title>
<ellipse fill="none" stroke="black" cx="950.86" cy="-18" rx="88.2" ry="18"/>
<text text-anchor="middle" x="950.86" y="-12.95" font-family="Times,serif" font-size="14.00">Флективные языки</text>
</g>
<!-- Слово&#45;&gt;Флективные языки -->
<g id="edge14" class="edge">
<title>Слово&#45;&gt;Флективные языки</title>
<path fill="none" stroke="black" d="M1021.42,-74.5C1009.76,-65.32 994.4,-53.24 980.99,-42.7"/>
<polygon fill="black" stroke="black" points="983.31,-40.07 973.28,-36.63 978.98,-45.57 983.31,-40.07"/>
</g>
<!-- Произношение -->
<g id="node14" class="node">
<title>Произношение</title>
<ellipse fill="none" stroke="black" cx="1127.86" cy="-18" rx="70.8" ry="18"/>
<text text-anchor="middle" x="1127.86" y="-12.95" font-family="Times,serif" font-size="14.00">Произношение</text>
</g>
<!-- Слово&#45;&gt;Произношение -->
<g id="edge15" class="edge">
<title>Слово&#45;&gt;Произношение</title>
<path fill="none" stroke="black" d="M1058.1,-74.5C1069.71,-65.26 1085.03,-53.07 1098.35,-42.47"/>
<polygon fill="black" stroke="black" points="1100.35,-45.35 1106,-36.39 1096,-39.88 1100.35,-45.35"/>
</g>
<!-- Верхнесалдинский краеведческий музей -->
<g id="node16" class="node">
<title>Верхнесалдинский краеведческий музей</title>
<ellipse fill="none" stroke="black" cx="2332.86" cy="-90" rx="174.7" ry="18"/>
<text text-anchor="middle" x="2332.86" y="-84.95" font-family="Times,serif" font-size="14.00">Верхнесалдинский краеведческий музей</text>
</g>
<!-- Грум&#45;Гржимайло, Владимир Ефимович&#45;&gt;Верхнесалдинский краеведческий музей -->
<g id="edge16" class="edge">
<title>Грум&#45;Гржимайло, Владимир Ефимович&#45;&gt;Верхнесалдинский краеведческий музей</title>
<path fill="none" stroke="black" d="M2332.86,-143.7C2332.86,-136.41 2332.86,-127.73 2332.86,-119.54"/>
<polygon fill="black" stroke="black" points="2336.36,-119.62 2332.86,-109.62 2329.36,-119.62 2336.36,-119.62"/>
</g>
<!-- Российская Советская Федеративная Социалистическая Республика -->
<g id="node19" class="node">
<title>Российская Советская Федеративная Социалистическая Республика</title>
<ellipse fill="none" stroke="black" cx="1846.86" cy="-90" rx="286.27" ry="18"/>
<text text-anchor="middle" x="1846.86" y="-84.95" font-family="Times,serif" font-size="14.00">Российская Советская Федеративная Социалистическая Республика</text>
</g>
<!-- Грум&#45;Гржимайло, Владимир Ефимович&#45;&gt;Российская Советская Федеративная Социалистическая Республика -->
<g id="edge17" class="edge">
<title>Грум&#45;Гржимайло, Владимир Ефимович&#45;&gt;Российская Советская Федеративная Социалистическая Республика</title>
<path fill="none" stroke="black" d="M2234.81,-146.88C2158.19,-135.84 2051.29,-120.44 1969.1,-108.61"/>
<polygon fill="black" stroke="black" points="1969.83,-105.17 1959.43,-107.21 1968.83,-112.1 1969.83,-105.17"/>
</g>
<!-- Санкт&#45;Петербургский горный институт (Российская империя) -->
<g id="node23" class="node">
<title>Санкт&#45;Петербургский горный институт (Российская империя)</title>
<ellipse fill="none" stroke="black" cx="2857.86" cy="-90" rx="261.7" ry="18"/>
<text text-anchor="middle" x="2857.86" y="-84.95" font-family="Times,serif" font-size="14.00">Санкт&#45;Петербургский горный институт (Российская империя)</text>
</g>
<!-- Грум&#45;Гржимайло, Владимир Ефимович&#45;&gt;Санкт&#45;Петербургский горный институт (Российская империя) -->
<g id="edge18" class="edge">
<title>Грум&#45;Гржимайло, Владимир Ефимович&#45;&gt;Санкт&#45;Петербургский горный институт (Российская империя)</title>
<path fill="none" stroke="black" d="M2435.96,-147.25C2520.24,-136.02 2639.8,-120.08 2730.14,-108.03"/>
<polygon fill="black" stroke="black" points="2730.34,-111.53 2739.78,-106.74 2729.41,-104.6 2730.34,-111.53"/>
</g>
<!-- Wayback Machine -->
<g id="node17" class="node">
<title>Wayback Machine</title>
<ellipse fill="none" stroke="black" cx="2332.86" cy="-18" rx="80.52" ry="18"/>
<text text-anchor="middle" x="2332.86" y="-12.95" font-family="Times,serif" font-size="14.00">Wayback Machine</text>
</g>
<!-- Верхнесалдинский краеведческий музей&#45;&gt;Wayback Machine -->
<g id="edge19" class="edge">
<title>Верхнесалдинский краеведческий музей&#45;&gt;Wayback Machine</title>
<path fill="none" stroke="black" d="M2326.95,-71.7C2326.2,-64.41 2325.95,-55.73 2326.22,-47.54"/>
<polygon fill="black" stroke="black" points="2329.71,-47.82 2326.87,-37.61 2322.72,-47.36 2329.71,-47.82"/>
</g>
<!-- Верхнесалдинский краеведческий музей&#45;&gt;Wayback Machine -->
<g id="edge20" class="edge">
<title>Верхнесалдинский краеведческий музей&#45;&gt;Wayback Machine</title>
<path fill="none" stroke="black" d="M2338.78,-71.7C2339.53,-64.41 2339.77,-55.73 2339.51,-47.54"/>
<polygon fill="black" stroke="black" points="2343.01,-47.36 2338.86,-37.61 2336.02,-47.82 2343.01,-47.36"/>
</g>
<!-- YouTube -->
<g id="node18" class="node">
<title>YouTube</title>
<ellipse fill="none" stroke="black" cx="2188.86" cy="-18" rx="45.21" ry="18"/>
<text text-anchor="middle" x="2188.86" y="-12.95" font-family="Times,serif" font-size="14.00">YouTube</text>
</g>
<!-- Верхнесалдинский краеведческий музей&#45;&gt;YouTube -->
<g id="edge21" class="edge">
<title>Верхнесалдинский краеведческий музей&#45;&gt;YouTube</title>
<path fill="none" stroke="black" d="M2298,-72.05C2276.55,-61.62 2249.02,-48.24 2226.99,-37.53"/>
<polygon fill="black" stroke="black" points="2228.54,-34.4 2218.02,-33.17 2225.48,-40.69 2228.54,-34.4"/>
</g>
<!-- Молдавская демократическая республика -->
<g id="node20" class="node">
<title>Молдавская демократическая республика</title>
<ellipse fill="none" stroke="black" cx="1839.86" cy="-18" rx="178.79" ry="18"/>
<text text-anchor="middle" x="1839.86" y="-12.95" font-family="Times,serif" font-size="14.00">Молдавская демократическая республика</text>
</g>
<!-- Российская Советская Федеративная Социалистическая Республика&#45;&gt;Молдавская демократическая республика -->
<g id="edge22" class="edge">
<title>Российская Советская Федеративная Социалистическая Республика&#45;&gt;Молдавская демократическая республика</title>
<path fill="none" stroke="black" d="M1845.13,-71.7C1844.4,-64.41 1843.54,-55.73 1842.72,-47.54"/>
<polygon fill="black" stroke="black" points="1846.2,-47.21 1841.72,-37.61 1839.24,-47.91 1846.2,-47.21"/>
</g>
<!-- 1389 год -->
<g id="node21" class="node">
<title>1389 год</title>
<ellipse fill="none" stroke="black" cx="2080.86" cy="-18" rx="44.7" ry="18"/>
<text text-anchor="middle" x="2080.86" y="-12.95" font-family="Times,serif" font-size="14.00">1389 год</text>
</g>
<!-- Российская Советская Федеративная Социалистическая Республика&#45;&gt;1389 год -->
<g id="edge23" class="edge">
<title>Российская Советская Федеративная Социалистическая Республика&#45;&gt;1389 год</title>
<path fill="none" stroke="black" d="M1906.49,-71.96C1941.84,-61.75 1987.48,-48.39 2027.86,-36 2030.44,-35.21 2033.08,-34.39 2035.74,-33.56"/>
<polygon fill="black" stroke="black" points="2036.77,-36.91 2045.25,-30.56 2034.66,-30.23 2036.77,-36.91"/>
</g>
<!-- Совет народных комиссаров РСФСР -->
<g id="node22" class="node">
<title>Совет народных комиссаров РСФСР</title>
<ellipse fill="none" stroke="black" cx="1483.86" cy="-18" rx="158.83" ry="18"/>
<text text-anchor="middle" x="1483.86" y="-12.95" font-family="Times,serif" font-size="14.00">Совет народных комиссаров РСФСР</text>
</g>
<!-- Российская Советская Федеративная Социалистическая Республика&#45;&gt;Совет народных комиссаров РСФСР -->
<g id="edge24" class="edge">
<title>Российская Советская Федеративная Социалистическая Республика&#45;&gt;Совет народных комиссаров РСФСР</title>
<path fill="none" stroke="black" d="M1760.84,-72.41C1704.33,-61.51 1630.56,-47.29 1573.36,-36.26"/>
<polygon fill="black" stroke="black" points="1574.12,-32.84 1563.64,-34.38 1572.79,-39.71 1574.12,-32.84"/>
</g>
<!-- Википедия:Проверяемость -->
<g id="node24" class="node">
<title>Википедия:Проверяемость</title>
<ellipse fill="none" stroke="black" cx="3328.86" cy="-18" rx="119.93" ry="18"/>
<text text-anchor="middle" x="3328.86" y="-12.95" font-family="Times,serif" font-size="14.00">Википедия:Проверяемость</text>
</g>
<!-- Санкт&#45;Петербургский горный институт (Российская империя)&#45;&gt;Википедия:Проверяемость -->
<g id="edge25" class="edge">
<title>Санкт&#45;Петербургский горный институт (Российская империя)&#45;&gt;Википедия:Проверяемость</title>
<path fill="none" stroke="black" d="M2964.74,-73.12C3045.97,-61.04 3156.65,-44.59 3234.6,-33.01"/>
<polygon fill="black" stroke="black" points="3234.98,-36.49 3244.35,-31.56 3233.95,-29.57 3234.98,-36.49"/>
</g>
<!-- Долбня, Иван Петрович -->
<g id="node25" class="node">
<title>Долбня, Иван Петрович</title>
<ellipse fill="none" stroke="black" cx="2538.86" cy="-18" rx="107.65" ry="18"/>
<text text-anchor="middle" x="2538.86" y="-12.95" font-family="Times,serif" font-size="14.00">Долбня, Иван Петрович</text>
</g>
<!-- Санкт&#45;Петербургский горный институт (Российская империя)&#45;&gt;Долбня, Иван Петрович -->
<g id="edge26" class="edge">
<title>Санкт&#45;Петербургский горный институт (Российская империя)&#45;&gt;Долбня, Иван Петрович</title>
<path fill="none" stroke="black" d="M2781.86,-72.32C2730.98,-61.16 2664.3,-46.53 2613.67,-35.42"/>
<polygon fill="black" stroke="black" points="2614.47,-32.01 2603.95,-33.28 2612.97,-38.84 2614.47,-32.01"/>
</g>
<!-- Категория:Выпускники института Корпуса горных инженеров -->
<g id="node26" class="node">
<title>Категория:Выпускники института Корпуса горных инженеров</title>
<ellipse fill="none" stroke="black" cx="2927.86" cy="-18" rx="263.24" ry="18"/>
<text text-anchor="middle" x="2927.86" y="-12.95" font-family="Times,serif" font-size="14.00">Категория:Выпускники института Корпуса горных инженеров</text>
</g>
<!-- Санкт&#45;Петербургский горный институт (Российская империя)&#45;&gt;Категория:Выпускники института Корпуса горных инженеров -->
<g id="edge27" class="edge">
<title>Санкт&#45;Петербургский горный институт (Российская империя)&#45;&gt;Категория:Выпускники института Корпуса горных инженеров</title>
<path fill="none" stroke="black" d="M2875.17,-71.7C2883.47,-63.39 2893.59,-53.28 2902.72,-44.14"/>
<polygon fill="black" stroke="black" points="2905.09,-46.72 2909.69,-37.17 2900.14,-41.77 2905.09,-46.72"/>
</g>
<!-- Сляб -->
<g id="node28" class="node">
<title>Сляб</title>
<ellipse fill="none" stroke="black" cx="3887.86" cy="-90" rx="30.88" ry="18"/>
<text text-anchor="middle" x="3887.86" y="-84.95" font-family="Times,serif" font-size="14.00">Сляб</text>
</g>
<!-- Слябинг&#45;&gt;Сляб -->
<g id="edge28" class="edge">
<title>Слябинг&#45;&gt;Сляб</title>
<path fill="none" stroke="black" d="M3720.05,-149.44C3756.18,-136.86 3813.79,-116.8 3851.22,-103.76"/>
<polygon fill="black" stroke="black" points="3851.95,-107.21 3860.25,-100.62 3849.65,-100.6 3851.95,-107.21"/>
</g>
<!-- История производства и использования железа -->
<g id="node32" class="node">
<title>История производства и использования железа</title>
<ellipse fill="none" stroke="black" cx="3546.86" cy="-90" rx="201.31" ry="18"/>
<text text-anchor="middle" x="3546.86" y="-84.95" font-family="Times,serif" font-size="14.00">История производства и использования железа</text>
</g>
<!-- Слябинг&#45;&gt;История производства и использования железа -->
<g id="edge29" class="edge">
<title>Слябинг&#45;&gt;История производства и использования железа</title>
<path fill="none" stroke="black" d="M3659.54,-147.34C3640.23,-137.69 3613.93,-124.53 3591.59,-113.36"/>
<polygon fill="black" stroke="black" points="3593.18,-110.25 3582.67,-108.9 3590.05,-116.51 3593.18,-110.25"/>
</g>
<!-- Пресс (механизм) -->
<g id="node35" class="node">
<title>Пресс (механизм)</title>
<ellipse fill="none" stroke="black" cx="4292.86" cy="-90" rx="82.57" ry="18"/>
<text text-anchor="middle" x="4292.86" y="-84.95" font-family="Times,serif" font-size="14.00">Пресс (механизм)</text>
</g>
<!-- Слябинг&#45;&gt;Пресс (механизм) -->
<g id="edge30" class="edge">
<title>Слябинг&#45;&gt;Пресс (механизм)</title>
<path fill="none" stroke="black" d="M3729.96,-156.02C3830,-144.47 4079.38,-115.66 4210.04,-100.57"/>
<polygon fill="black" stroke="black" points="4210.12,-104.08 4219.65,-99.46 4209.31,-97.13 4210.12,-104.08"/>
</g>
<!-- Блюминг (стан) -->
<g id="node29" class="node">
<title>Блюминг (стан)</title>
<ellipse fill="none" stroke="black" cx="4080.86" cy="-18" rx="74.38" ry="18"/>
<text text-anchor="middle" x="4080.86" y="-12.95" font-family="Times,serif" font-size="14.00">Блюминг (стан)</text>
</g>
<!-- Сляб&#45;&gt;Блюминг (стан) -->
<g id="edge31" class="edge">
<title>Сляб&#45;&gt;Блюминг (стан)</title>
<path fill="none" stroke="black" d="M3913.49,-79.7C3943.08,-68.97 3992.47,-51.06 4029.95,-37.47"/>
<polygon fill="black" stroke="black" points="4031.04,-40.79 4039.24,-34.09 4028.65,-34.21 4031.04,-40.79"/>
</g>
<!-- Викисловарь -->
<g id="node30" class="node">
<title>Викисловарь</title>
<ellipse fill="none" stroke="black" cx="3827.86" cy="-18" rx="63.12" ry="18"/>
<text text-anchor="middle" x="3827.86" y="-12.95" font-family="Times,serif" font-size="14.00">Викисловарь</text>
</g>
<!-- Сляб&#45;&gt;Викисловарь -->
<g id="edge32" class="edge">
<title>Сляб&#45;&gt;Викисловарь</title>
<path fill="none" stroke="black" d="M3874.55,-73.46C3867.25,-64.95 3858.03,-54.19 3849.71,-44.48"/>
<polygon fill="black" stroke="black" points="3852.55,-42.43 3843.39,-37.11 3847.24,-46.98 3852.55,-42.43"/>
</g>
<!-- Наклёп -->
<g id="node31" class="node">
<title>Наклёп</title>
<ellipse fill="none" stroke="black" cx="3948.86" cy="-18" rx="40.09" ry="18"/>
<text text-anchor="middle" x="3948.86" y="-12.95" font-family="Times,serif" font-size="14.00">Наклёп</text>
</g>
<!-- Сляб&#45;&gt;Наклёп -->
<g id="edge33" class="edge">
<title>Сляб&#45;&gt;Наклёп</title>
<path fill="none" stroke="black" d="M3901.4,-73.46C3909.03,-64.71 3918.74,-53.56 3927.39,-43.64"/>
<polygon fill="black" stroke="black" points="3930.01,-45.96 3933.95,-36.12 3924.74,-41.36 3930.01,-45.96"/>
</g>
<!-- История производства и использования железа&#45;&gt;Википедия:Проверяемость -->
<g id="edge34" class="edge">
<title>История производства и использования железа&#45;&gt;Википедия:Проверяемость</title>
<path fill="none" stroke="black" d="M3494.37,-72.14C3462.68,-61.97 3422.17,-48.96 3389.17,-38.36"/>
<polygon fill="black" stroke="black" points="3390.32,-35.06 3379.73,-35.33 3388.18,-41.72 3390.32,-35.06"/>
</g>
<!-- Древесный уголь -->
<g id="node33" class="node">
<title>Древесный уголь</title>
<ellipse fill="none" stroke="black" cx="3665.86" cy="-18" rx="81.04" ry="18"/>
<text text-anchor="middle" x="3665.86" y="-12.95" font-family="Times,serif" font-size="14.00">Древесный уголь</text>
</g>
<!-- История производства и использования железа&#45;&gt;Древесный уголь -->
<g id="edge35" class="edge">
<title>История производства и использования железа&#45;&gt;Древесный уголь</title>
<path fill="none" stroke="black" d="M3575.97,-71.88C3591.85,-62.54 3611.67,-50.88 3628.66,-40.89"/>
<polygon fill="black" stroke="black" points="3630.13,-44.08 3636.97,-35.99 3626.58,-38.05 3630.13,-44.08"/>
</g>
<!-- Анатолия -->
<g id="node34" class="node">
<title>Анатолия</title>
<ellipse fill="none" stroke="black" cx="3516.86" cy="-18" rx="49.82" ry="18"/>
<text text-anchor="middle" x="3516.86" y="-12.95" font-family="Times,serif" font-size="14.00">Анатолия</text>
</g>
<!-- История производства и использования железа&#45;&gt;Анатолия -->
<g id="edge36" class="edge">
<title>История производства и использования железа&#45;&gt;Анатолия</title>
<path fill="none" stroke="black" d="M3539.45,-71.7C3536.21,-64.15 3532.34,-55.12 3528.73,-46.68"/>
<polygon fill="black" stroke="black" points="3531.95,-45.31 3524.79,-37.5 3525.51,-48.07 3531.95,-45.31"/>
</g>
<!-- Прокат -->
<g id="node36" class="node">
<title>Прокат</title>
<ellipse fill="none" stroke="black" cx="4518.86" cy="-18" rx="39.58" ry="18"/>
<text text-anchor="middle" x="4518.86" y="-12.95" font-family="Times,serif" font-size="14.00">Прокат</text>
</g>
<!-- Пресс (механизм)&#45;&gt;Прокат -->
<g id="edge37" class="edge">
<title>Пресс (механизм)&#45;&gt;Прокат</title>
<path fill="none" stroke="black" d="M4341.8,-75.16C4377.68,-64.83 4427.48,-50.13 4470.86,-36 4473.1,-35.27 4475.38,-34.51 4477.69,-33.74"/>
<polygon fill="black" stroke="black" points="4478.72,-37.08 4487.04,-30.52 4476.45,-30.46 4478.72,-37.08"/>
</g>
<!-- Двутавр -->
<g id="node37" class="node">
<title>Двутавр</title>
<ellipse fill="none" stroke="black" cx="4216.86" cy="-18" rx="43.67" ry="18"/>
<text text-anchor="middle" x="4216.86" y="-12.95" font-family="Times,serif" font-size="14.00">Двутавр</text>
</g>
<!-- Пресс (механизм)&#45;&gt;Двутавр -->
<g id="edge38" class="edge">
<title>Пресс (механизм)&#45;&gt;Двутавр</title>
<path fill="none" stroke="black" d="M4274.47,-72.05C4264.86,-63.2 4252.94,-52.23 4242.45,-42.57"/>
<polygon fill="black" stroke="black" points="4244.89,-40.06 4235.16,-35.85 4240.15,-45.2 4244.89,-40.06"/>
</g>
<!-- Протяжка (процесс) -->
<g id="node38" class="node">
<title>Протяжка (процесс)</title>
<ellipse fill="none" stroke="black" cx="4369.86" cy="-18" rx="91.78" ry="18"/>
<text text-anchor="middle" x="4369.86" y="-12.95" font-family="Times,serif" font-size="14.00">Протяжка (процесс)</text>
</g>
<!-- Пресс (механизм)&#45;&gt;Протяжка (процесс) -->
<g id="edge39" class="edge">
<title>Пресс (механизм)&#45;&gt;Протяжка (процесс)</title>
<path fill="none" stroke="black" d="M4311.5,-72.05C4320.89,-63.52 4332.45,-53.01 4342.8,-43.61"/>
<polygon fill="black" stroke="black" points="4344.96,-46.37 4350.01,-37.05 4340.25,-41.19 4344.96,-46.37"/>
</g>
</g>
</svg>
